<mxfile host="app.diagrams.net" modified="2022-04-15T07:48:41.536Z" agent="5.0 (Windows NT 10.0; Win64; x64) AppleWebKit/537.36 (KHTML, like Gecko) Chrome/100.0.4896.75 Safari/537.36" etag="JKwLIlEJChr0Lx223trj" version="17.4.4" type="github">
  <diagram id="dEXIUP95ZJAFLUqkLwBl" name="Page-1">
    <mxGraphModel dx="1108" dy="450" grid="1" gridSize="10" guides="1" tooltips="1" connect="1" arrows="1" fold="1" page="1" pageScale="1" pageWidth="850" pageHeight="1100" math="0" shadow="0">
      <root>
        <mxCell id="0" />
        <mxCell id="1" parent="0" />
        <mxCell id="l_oWPjq52ZO-z01pJi5X-1" value="&lt;font style=&quot;font-size: 18px&quot;&gt;The resident&lt;/font&gt;" style="shape=umlActor;verticalLabelPosition=bottom;labelBackgroundColor=#ffffff;verticalAlign=top;html=1;outlineConnect=0;fillColor=#FFE599;strokeColor=#000000;" vertex="1" parent="1">
          <mxGeometry x="920" y="60" width="40" height="70" as="geometry" />
        </mxCell>
        <mxCell id="l_oWPjq52ZO-z01pJi5X-2" value="" style="endArrow=none;html=1;" edge="1" parent="1">
          <mxGeometry width="50" height="50" relative="1" as="geometry">
            <mxPoint x="940" y="190" as="sourcePoint" />
            <mxPoint x="940" y="150" as="targetPoint" />
            <Array as="points" />
          </mxGeometry>
        </mxCell>
        <mxCell id="l_oWPjq52ZO-z01pJi5X-3" value="" style="endArrow=none;html=1;" edge="1" parent="1">
          <mxGeometry width="50" height="50" relative="1" as="geometry">
            <mxPoint x="170" y="190" as="sourcePoint" />
            <mxPoint x="1780" y="190" as="targetPoint" />
          </mxGeometry>
        </mxCell>
        <mxCell id="l_oWPjq52ZO-z01pJi5X-4" value="" style="endArrow=classic;html=1;entryX=0.5;entryY=0;entryDx=0;entryDy=0;" edge="1" parent="1">
          <mxGeometry width="50" height="50" relative="1" as="geometry">
            <mxPoint x="170" y="190" as="sourcePoint" />
            <mxPoint x="170" y="250" as="targetPoint" />
            <Array as="points">
              <mxPoint x="170" y="230" />
            </Array>
          </mxGeometry>
        </mxCell>
        <mxCell id="l_oWPjq52ZO-z01pJi5X-5" value="" style="endArrow=classic;html=1;entryX=0.5;entryY=0;entryDx=0;entryDy=0;" edge="1" parent="1" target="l_oWPjq52ZO-z01pJi5X-13">
          <mxGeometry width="50" height="50" relative="1" as="geometry">
            <mxPoint x="420" y="190" as="sourcePoint" />
            <mxPoint x="410" y="250" as="targetPoint" />
            <Array as="points" />
          </mxGeometry>
        </mxCell>
        <mxCell id="l_oWPjq52ZO-z01pJi5X-6" value="" style="endArrow=classic;html=1;" edge="1" parent="1" target="l_oWPjq52ZO-z01pJi5X-8">
          <mxGeometry width="50" height="50" relative="1" as="geometry">
            <mxPoint x="710" y="190" as="sourcePoint" />
            <mxPoint x="810" y="240" as="targetPoint" />
            <Array as="points" />
          </mxGeometry>
        </mxCell>
        <mxCell id="l_oWPjq52ZO-z01pJi5X-7" value="" style="endArrow=classic;html=1;entryX=0.5;entryY=0;entryDx=0;entryDy=0;entryPerimeter=0;" edge="1" parent="1" target="l_oWPjq52ZO-z01pJi5X-15">
          <mxGeometry width="50" height="50" relative="1" as="geometry">
            <mxPoint x="1060" y="190" as="sourcePoint" />
            <mxPoint x="1050" y="240" as="targetPoint" />
          </mxGeometry>
        </mxCell>
        <mxCell id="l_oWPjq52ZO-z01pJi5X-8" value="&lt;span&gt;&lt;font style=&quot;font-size: 18px&quot;&gt;&lt;b&gt;Manage and track UIN/VID&lt;/b&gt;&lt;/font&gt;&lt;/span&gt;" style="rounded=0;whiteSpace=wrap;html=1;fillColor=#FFFF00;" vertex="1" parent="1">
          <mxGeometry x="650" y="250" width="120" height="60" as="geometry" />
        </mxCell>
        <mxCell id="l_oWPjq52ZO-z01pJi5X-9" value="" style="edgeStyle=orthogonalEdgeStyle;rounded=0;orthogonalLoop=1;jettySize=auto;html=1;entryX=0;entryY=0.5;entryDx=0;entryDy=0;" edge="1" parent="1" source="l_oWPjq52ZO-z01pJi5X-10" target="l_oWPjq52ZO-z01pJi5X-11">
          <mxGeometry relative="1" as="geometry">
            <mxPoint x="30" y="390" as="targetPoint" />
            <Array as="points">
              <mxPoint x="30" y="280" />
              <mxPoint x="30" y="375" />
            </Array>
          </mxGeometry>
        </mxCell>
        <mxCell id="l_oWPjq52ZO-z01pJi5X-10" value="&lt;span&gt;&lt;font style=&quot;font-size: 18px&quot;&gt;&lt;b&gt;Get information&lt;/b&gt;&lt;/font&gt;&lt;/span&gt;" style="rounded=0;whiteSpace=wrap;html=1;fillColor=#CC00CC;" vertex="1" parent="1">
          <mxGeometry x="110" y="250" width="120" height="60" as="geometry" />
        </mxCell>
        <mxCell id="l_oWPjq52ZO-z01pJi5X-11" value="&lt;font style=&quot;font-size: 14px&quot;&gt;Search for registration center on the basis of location hierarchy&lt;/font&gt;" style="rounded=0;whiteSpace=wrap;html=1;fillColor=#FF99FF;" vertex="1" parent="1">
          <mxGeometry x="110" y="340" width="120" height="70" as="geometry" />
        </mxCell>
        <mxCell id="l_oWPjq52ZO-z01pJi5X-12" value="&lt;span&gt;&lt;font style=&quot;font-size: 14px&quot;&gt;Search the nearest registration center&lt;/font&gt;&lt;/span&gt;" style="rounded=0;whiteSpace=wrap;html=1;fillColor=#FF99FF;" vertex="1" parent="1">
          <mxGeometry x="110" y="500" width="120" height="70" as="geometry" />
        </mxCell>
        <mxCell id="l_oWPjq52ZO-z01pJi5X-13" value="&lt;span&gt;&lt;font style=&quot;font-size: 18px&quot;&gt;&lt;b&gt;Issue credential&lt;/b&gt;&lt;/font&gt;&lt;/span&gt;" style="rounded=0;whiteSpace=wrap;html=1;fillColor=#007FFF;" vertex="1" parent="1">
          <mxGeometry x="360" y="250" width="120" height="60" as="geometry" />
        </mxCell>
        <mxCell id="l_oWPjq52ZO-z01pJi5X-14" value="&lt;span&gt;&lt;font style=&quot;font-size: 14px&quot;&gt;Download a card&lt;/font&gt;&lt;/span&gt;" style="rounded=0;whiteSpace=wrap;html=1;fillColor=#99CCFF;" vertex="1" parent="1">
          <mxGeometry x="360" y="340" width="120" height="70" as="geometry" />
        </mxCell>
        <mxCell id="l_oWPjq52ZO-z01pJi5X-15" value="&lt;span&gt;&lt;font style=&quot;font-size: 18px&quot;&gt;&lt;b&gt;Mobile ID App&lt;/b&gt;&lt;/font&gt;&lt;/span&gt;" style="rounded=0;whiteSpace=wrap;html=1;fillColor=#00FF00;" vertex="1" parent="1">
          <mxGeometry x="1000" y="250" width="120" height="60" as="geometry" />
        </mxCell>
        <mxCell id="l_oWPjq52ZO-z01pJi5X-16" value="&lt;font style=&quot;font-size: 14px&quot;&gt;Search for registration center on the basis of free text&lt;/font&gt;" style="rounded=0;whiteSpace=wrap;html=1;fillColor=#FF99FF;" vertex="1" parent="1">
          <mxGeometry x="110" y="420" width="120" height="70" as="geometry" />
        </mxCell>
        <mxCell id="l_oWPjq52ZO-z01pJi5X-17" value="&lt;span&gt;&lt;font style=&quot;font-size: 14px&quot;&gt;Get list of acceptable document type&lt;/font&gt;&lt;/span&gt;" style="rounded=0;whiteSpace=wrap;html=1;fillColor=#FF99FF;" vertex="1" parent="1">
          <mxGeometry x="110" y="580" width="120" height="70" as="geometry" />
        </mxCell>
        <mxCell id="l_oWPjq52ZO-z01pJi5X-18" value="&lt;span&gt;&lt;font style=&quot;font-size: 14px&quot;&gt;Order a physical card&lt;/font&gt;&lt;/span&gt;" style="rounded=0;whiteSpace=wrap;html=1;fillColor=#99CCFF;" vertex="1" parent="1">
          <mxGeometry x="360" y="420" width="120" height="70" as="geometry" />
        </mxCell>
        <mxCell id="l_oWPjq52ZO-z01pJi5X-19" value="" style="endArrow=classic;html=1;entryX=0;entryY=0.5;entryDx=0;entryDy=0;" edge="1" parent="1" target="l_oWPjq52ZO-z01pJi5X-16">
          <mxGeometry width="50" height="50" relative="1" as="geometry">
            <mxPoint x="30" y="360" as="sourcePoint" />
            <mxPoint x="270" y="420" as="targetPoint" />
            <Array as="points">
              <mxPoint x="30" y="455" />
            </Array>
          </mxGeometry>
        </mxCell>
        <mxCell id="l_oWPjq52ZO-z01pJi5X-20" value="" style="endArrow=classic;html=1;entryX=0;entryY=0.5;entryDx=0;entryDy=0;" edge="1" parent="1">
          <mxGeometry width="50" height="50" relative="1" as="geometry">
            <mxPoint x="30" y="440" as="sourcePoint" />
            <mxPoint x="110" y="535" as="targetPoint" />
            <Array as="points">
              <mxPoint x="30" y="535" />
            </Array>
          </mxGeometry>
        </mxCell>
        <mxCell id="l_oWPjq52ZO-z01pJi5X-21" value="" style="endArrow=classic;html=1;entryX=0;entryY=0.5;entryDx=0;entryDy=0;" edge="1" parent="1">
          <mxGeometry width="50" height="50" relative="1" as="geometry">
            <mxPoint x="30" y="520" as="sourcePoint" />
            <mxPoint x="110" y="610" as="targetPoint" />
            <Array as="points">
              <mxPoint x="30" y="610" />
            </Array>
          </mxGeometry>
        </mxCell>
        <mxCell id="l_oWPjq52ZO-z01pJi5X-22" value="" style="edgeStyle=orthogonalEdgeStyle;rounded=0;orthogonalLoop=1;jettySize=auto;html=1;entryX=0;entryY=0.5;entryDx=0;entryDy=0;" edge="1" parent="1">
          <mxGeometry relative="1" as="geometry">
            <mxPoint x="360" y="280" as="sourcePoint" />
            <mxPoint x="360" y="375" as="targetPoint" />
            <Array as="points">
              <mxPoint x="280" y="280" />
              <mxPoint x="280" y="375" />
            </Array>
          </mxGeometry>
        </mxCell>
        <mxCell id="l_oWPjq52ZO-z01pJi5X-23" value="" style="endArrow=classic;html=1;entryX=0;entryY=0.5;entryDx=0;entryDy=0;" edge="1" parent="1">
          <mxGeometry width="50" height="50" relative="1" as="geometry">
            <mxPoint x="280" y="360" as="sourcePoint" />
            <mxPoint x="360" y="455" as="targetPoint" />
            <Array as="points">
              <mxPoint x="280" y="455" />
            </Array>
          </mxGeometry>
        </mxCell>
        <mxCell id="l_oWPjq52ZO-z01pJi5X-24" value="" style="endArrow=classic;html=1;entryX=0;entryY=0.5;entryDx=0;entryDy=0;" edge="1" parent="1" source="l_oWPjq52ZO-z01pJi5X-47">
          <mxGeometry width="50" height="50" relative="1" as="geometry">
            <mxPoint x="280" y="440" as="sourcePoint" />
            <mxPoint x="360" y="535" as="targetPoint" />
            <Array as="points">
              <mxPoint x="280" y="535" />
            </Array>
          </mxGeometry>
        </mxCell>
        <mxCell id="l_oWPjq52ZO-z01pJi5X-25" value="&lt;span&gt;&lt;font style=&quot;font-size: 14px&quot;&gt;Share with a partner&lt;/font&gt;&lt;/span&gt;" style="rounded=0;whiteSpace=wrap;html=1;fillColor=#99CCFF;strokeColor=#000000;" vertex="1" parent="1">
          <mxGeometry x="360" y="500" width="120" height="70" as="geometry" />
        </mxCell>
        <mxCell id="l_oWPjq52ZO-z01pJi5X-26" value="&lt;span style=&quot;font-size: 14px&quot;&gt;Lock/unlock authentication type&lt;/span&gt;" style="rounded=0;whiteSpace=wrap;html=1;fillColor=#FFFF99;" vertex="1" parent="1">
          <mxGeometry x="590" y="340" width="120" height="70" as="geometry" />
        </mxCell>
        <mxCell id="l_oWPjq52ZO-z01pJi5X-27" value="&lt;span style=&quot;font-size: 14px&quot;&gt;Self update demographic (non-biometric) data&lt;/span&gt;" style="rounded=0;whiteSpace=wrap;html=1;fillColor=#FFFF99;strokeColor=#000000;" vertex="1" parent="1">
          <mxGeometry x="590" y="420" width="120" height="70" as="geometry" />
        </mxCell>
        <mxCell id="l_oWPjq52ZO-z01pJi5X-28" value="&lt;span style=&quot;font-size: 14px&quot;&gt;Self update biometric data&lt;/span&gt;&lt;span&gt;&lt;font&gt;&lt;br&gt;&lt;/font&gt;&lt;/span&gt;" style="rounded=0;whiteSpace=wrap;html=1;fillColor=#FFFF99;" vertex="1" parent="1">
          <mxGeometry x="590" y="500" width="120" height="70" as="geometry" />
        </mxCell>
        <mxCell id="l_oWPjq52ZO-z01pJi5X-29" value="" style="endArrow=classic;html=1;entryX=0;entryY=0.5;entryDx=0;entryDy=0;" edge="1" parent="1">
          <mxGeometry width="50" height="50" relative="1" as="geometry">
            <mxPoint x="510" y="360" as="sourcePoint" />
            <mxPoint x="590" y="455" as="targetPoint" />
            <Array as="points">
              <mxPoint x="510" y="455" />
            </Array>
          </mxGeometry>
        </mxCell>
        <mxCell id="l_oWPjq52ZO-z01pJi5X-30" value="" style="endArrow=classic;html=1;entryX=0;entryY=0.5;entryDx=0;entryDy=0;" edge="1" parent="1">
          <mxGeometry width="50" height="50" relative="1" as="geometry">
            <mxPoint x="510" y="440" as="sourcePoint" />
            <mxPoint x="590" y="535" as="targetPoint" />
            <Array as="points">
              <mxPoint x="510" y="535" />
            </Array>
          </mxGeometry>
        </mxCell>
        <mxCell id="l_oWPjq52ZO-z01pJi5X-31" value="&lt;span style=&quot;font-size: 14px&quot;&gt;Issue a VerCred&lt;/span&gt;" style="rounded=0;whiteSpace=wrap;html=1;fillColor=#99FF99;" vertex="1" parent="1">
          <mxGeometry x="1000" y="340" width="120" height="70" as="geometry" />
        </mxCell>
        <mxCell id="l_oWPjq52ZO-z01pJi5X-32" value="&lt;span style=&quot;font-size: 14px&quot;&gt;Store multiple VC on my phone using UIN/VID&lt;/span&gt;" style="rounded=0;whiteSpace=wrap;html=1;fillColor=#99FF99;" vertex="1" parent="1">
          <mxGeometry x="1000" y="420" width="120" height="70" as="geometry" />
        </mxCell>
        <mxCell id="l_oWPjq52ZO-z01pJi5X-33" value="" style="endArrow=classic;html=1;entryX=0;entryY=0.5;entryDx=0;entryDy=0;" edge="1" parent="1">
          <mxGeometry width="50" height="50" relative="1" as="geometry">
            <mxPoint x="940" y="350" as="sourcePoint" />
            <mxPoint x="1000" y="455" as="targetPoint" />
            <Array as="points">
              <mxPoint x="940" y="400" />
              <mxPoint x="940" y="455" />
            </Array>
          </mxGeometry>
        </mxCell>
        <mxCell id="l_oWPjq52ZO-z01pJi5X-34" value="" style="edgeStyle=orthogonalEdgeStyle;rounded=0;orthogonalLoop=1;jettySize=auto;html=1;entryX=0;entryY=0.5;entryDx=0;entryDy=0;exitX=0;exitY=0.5;exitDx=0;exitDy=0;" edge="1" parent="1" source="l_oWPjq52ZO-z01pJi5X-15">
          <mxGeometry relative="1" as="geometry">
            <mxPoint x="990" y="280" as="sourcePoint" />
            <mxPoint x="1000" y="375" as="targetPoint" />
            <Array as="points">
              <mxPoint x="940" y="280" />
              <mxPoint x="940" y="375" />
            </Array>
          </mxGeometry>
        </mxCell>
        <mxCell id="l_oWPjq52ZO-z01pJi5X-35" value="&lt;span style=&quot;font-size: 14px&quot;&gt;Generate and manage VID&lt;/span&gt;" style="rounded=0;whiteSpace=wrap;html=1;fillColor=#FFFF99;" vertex="1" parent="1">
          <mxGeometry x="720" y="340" width="120" height="70" as="geometry" />
        </mxCell>
        <mxCell id="l_oWPjq52ZO-z01pJi5X-36" value="&lt;span&gt;&lt;font style=&quot;font-size: 14px&quot;&gt;View history:&lt;br&gt;-ID consumption&lt;br&gt;-ID operations&lt;br&gt;&lt;/font&gt;&lt;/span&gt;" style="rounded=0;whiteSpace=wrap;html=1;fillColor=#FFFF99;" vertex="1" parent="1">
          <mxGeometry x="720" y="420" width="120" height="70" as="geometry" />
        </mxCell>
        <mxCell id="l_oWPjq52ZO-z01pJi5X-37" value="" style="edgeStyle=orthogonalEdgeStyle;rounded=0;orthogonalLoop=1;jettySize=auto;html=1;exitX=1;exitY=0.5;exitDx=0;exitDy=0;entryX=1;entryY=0.5;entryDx=0;entryDy=0;" edge="1" parent="1" source="l_oWPjq52ZO-z01pJi5X-8" target="l_oWPjq52ZO-z01pJi5X-35">
          <mxGeometry relative="1" as="geometry">
            <mxPoint x="600" y="290" as="sourcePoint" />
            <mxPoint x="860" y="385" as="targetPoint" />
            <Array as="points">
              <mxPoint x="910" y="280" />
              <mxPoint x="910" y="375" />
            </Array>
          </mxGeometry>
        </mxCell>
        <mxCell id="l_oWPjq52ZO-z01pJi5X-38" value="" style="endArrow=classic;html=1;" edge="1" parent="1">
          <mxGeometry width="50" height="50" relative="1" as="geometry">
            <mxPoint x="910" y="440" as="sourcePoint" />
            <mxPoint x="840" y="530" as="targetPoint" />
            <Array as="points">
              <mxPoint x="910" y="530" />
            </Array>
          </mxGeometry>
        </mxCell>
        <mxCell id="l_oWPjq52ZO-z01pJi5X-39" value="&lt;b&gt;S&lt;/b&gt;" style="ellipse;whiteSpace=wrap;html=1;aspect=fixed;fillColor=#FF6666;" vertex="1" parent="1">
          <mxGeometry x="310" y="365" width="20" height="20" as="geometry" />
        </mxCell>
        <mxCell id="l_oWPjq52ZO-z01pJi5X-40" value="&lt;b&gt;S&lt;/b&gt;" style="ellipse;whiteSpace=wrap;html=1;aspect=fixed;fillColor=#FF6666;" vertex="1" parent="1">
          <mxGeometry x="310" y="445" width="20" height="20" as="geometry" />
        </mxCell>
        <mxCell id="l_oWPjq52ZO-z01pJi5X-41" value="" style="endArrow=classic;html=1;entryX=0;entryY=0.5;entryDx=0;entryDy=0;" edge="1" parent="1">
          <mxGeometry width="50" height="50" relative="1" as="geometry">
            <mxPoint x="280" y="440" as="sourcePoint" />
            <mxPoint x="360" y="535" as="targetPoint" />
            <Array as="points">
              <mxPoint x="280" y="535" />
            </Array>
          </mxGeometry>
        </mxCell>
        <mxCell id="l_oWPjq52ZO-z01pJi5X-42" value="&lt;span style=&quot;font-size: 14px&quot;&gt;Store credentials on feature phone&lt;/span&gt;" style="rounded=0;whiteSpace=wrap;html=1;fillColor=#99FF99;" vertex="1" parent="1">
          <mxGeometry x="1000" y="500" width="120" height="70" as="geometry" />
        </mxCell>
        <mxCell id="l_oWPjq52ZO-z01pJi5X-43" value="&lt;span style=&quot;font-size: 14px&quot;&gt;Share data to avail services&lt;/span&gt;" style="rounded=0;whiteSpace=wrap;html=1;fillColor=#99FF99;" vertex="1" parent="1">
          <mxGeometry x="1000" y="580" width="120" height="70" as="geometry" />
        </mxCell>
        <mxCell id="l_oWPjq52ZO-z01pJi5X-44" value="" style="endArrow=classic;html=1;entryX=1;entryY=0.5;entryDx=0;entryDy=0;" edge="1" parent="1" target="l_oWPjq52ZO-z01pJi5X-36">
          <mxGeometry width="50" height="50" relative="1" as="geometry">
            <mxPoint x="910" y="370" as="sourcePoint" />
            <mxPoint x="849.6585492351883" y="457.13066247268534" as="targetPoint" />
            <Array as="points">
              <mxPoint x="910" y="455" />
            </Array>
          </mxGeometry>
        </mxCell>
        <mxCell id="l_oWPjq52ZO-z01pJi5X-45" value="" style="endArrow=classic;html=1;entryX=0;entryY=0.5;entryDx=0;entryDy=0;" edge="1" parent="1">
          <mxGeometry width="50" height="50" relative="1" as="geometry">
            <mxPoint x="510" y="360" as="sourcePoint" />
            <mxPoint x="590" y="455" as="targetPoint" />
            <Array as="points">
              <mxPoint x="510" y="455" />
            </Array>
          </mxGeometry>
        </mxCell>
        <mxCell id="l_oWPjq52ZO-z01pJi5X-46" value="" style="endArrow=classic;html=1;entryX=0;entryY=0.5;entryDx=0;entryDy=0;" edge="1" parent="1">
          <mxGeometry width="50" height="50" relative="1" as="geometry">
            <mxPoint x="940" y="430" as="sourcePoint" />
            <mxPoint x="1000" y="535" as="targetPoint" />
            <Array as="points">
              <mxPoint x="940" y="480" />
              <mxPoint x="940" y="535" />
            </Array>
          </mxGeometry>
        </mxCell>
        <mxCell id="l_oWPjq52ZO-z01pJi5X-47" value="&lt;b&gt;S&lt;/b&gt;" style="ellipse;whiteSpace=wrap;html=1;aspect=fixed;fillColor=#FF6666;" vertex="1" parent="1">
          <mxGeometry x="310" y="525" width="20" height="20" as="geometry" />
        </mxCell>
        <mxCell id="l_oWPjq52ZO-z01pJi5X-48" value="&lt;span&gt;&lt;font style=&quot;font-size: 18px&quot;&gt;&lt;b&gt;Book a visit&lt;/b&gt;&lt;/font&gt;&lt;/span&gt;" style="rounded=0;whiteSpace=wrap;html=1;fillColor=#9933FF;" vertex="1" parent="1">
          <mxGeometry x="1165" y="250" width="125" height="70" as="geometry" />
        </mxCell>
        <mxCell id="l_oWPjq52ZO-z01pJi5X-49" value="&lt;span style=&quot;font-size: 14px&quot;&gt;Booking for retrieving lost UIN&lt;/span&gt;" style="rounded=0;whiteSpace=wrap;html=1;fillColor=#E5CCFF;" vertex="1" parent="1">
          <mxGeometry x="1165" y="410" width="130" height="70" as="geometry" />
        </mxCell>
        <mxCell id="l_oWPjq52ZO-z01pJi5X-50" value="&lt;span&gt;&lt;font style=&quot;font-size: 14px&quot;&gt;Book an appointment for other purpose&lt;/font&gt;&lt;/span&gt;" style="rounded=0;whiteSpace=wrap;html=1;fillColor=#E5CCFF;" vertex="1" parent="1">
          <mxGeometry x="1165" y="490" width="130" height="70" as="geometry" />
        </mxCell>
        <mxCell id="l_oWPjq52ZO-z01pJi5X-51" value="&lt;span style=&quot;font-size: 14px&quot;&gt;Booking for pre-registration&lt;/span&gt;" style="rounded=0;whiteSpace=wrap;html=1;fillColor=#E5CCFF;" vertex="1" parent="1">
          <mxGeometry x="1165" y="330" width="130" height="70" as="geometry" />
        </mxCell>
        <mxCell id="l_oWPjq52ZO-z01pJi5X-52" value="" style="endArrow=classic;html=1;" edge="1" parent="1">
          <mxGeometry width="50" height="50" relative="1" as="geometry">
            <mxPoint x="1355" y="280" as="sourcePoint" />
            <mxPoint x="1295" y="370" as="targetPoint" />
            <Array as="points">
              <mxPoint x="1355" y="370" />
            </Array>
          </mxGeometry>
        </mxCell>
        <mxCell id="l_oWPjq52ZO-z01pJi5X-53" value="" style="endArrow=classic;html=1;entryX=1;entryY=0.5;entryDx=0;entryDy=0;" edge="1" parent="1" target="l_oWPjq52ZO-z01pJi5X-49">
          <mxGeometry width="50" height="50" relative="1" as="geometry">
            <mxPoint x="1355.0000000000005" y="350" as="sourcePoint" />
            <mxPoint x="1285" y="440" as="targetPoint" />
            <Array as="points">
              <mxPoint x="1355" y="445" />
            </Array>
          </mxGeometry>
        </mxCell>
        <mxCell id="l_oWPjq52ZO-z01pJi5X-54" value="" style="endArrow=classic;html=1;" edge="1" parent="1">
          <mxGeometry width="50" height="50" relative="1" as="geometry">
            <mxPoint x="1355.0000000000005" y="420" as="sourcePoint" />
            <mxPoint x="1295" y="525" as="targetPoint" />
            <Array as="points">
              <mxPoint x="1355" y="525" />
            </Array>
          </mxGeometry>
        </mxCell>
        <mxCell id="l_oWPjq52ZO-z01pJi5X-55" value="" style="endArrow=none;html=1;" edge="1" parent="1">
          <mxGeometry width="50" height="50" relative="1" as="geometry">
            <mxPoint x="1290" y="280" as="sourcePoint" />
            <mxPoint x="1355" y="280" as="targetPoint" />
          </mxGeometry>
        </mxCell>
        <mxCell id="l_oWPjq52ZO-z01pJi5X-56" value="&lt;span style=&quot;font-size: 18px&quot;&gt;&lt;b&gt;Verify mobile number/email ID&lt;/b&gt;&lt;/span&gt;" style="rounded=0;whiteSpace=wrap;html=1;fillColor=#EA6B66;" vertex="1" parent="1">
          <mxGeometry x="1375" y="250" width="120" height="70" as="geometry" />
        </mxCell>
        <mxCell id="l_oWPjq52ZO-z01pJi5X-57" value="" style="endArrow=classic;html=1;entryX=0.5;entryY=0;entryDx=0;entryDy=0;" edge="1" parent="1">
          <mxGeometry width="50" height="50" relative="1" as="geometry">
            <mxPoint x="1434.79" y="190" as="sourcePoint" />
            <mxPoint x="1434.29" y="250" as="targetPoint" />
          </mxGeometry>
        </mxCell>
        <mxCell id="l_oWPjq52ZO-z01pJi5X-58" value="&lt;span style=&quot;font-size: 18px&quot;&gt;&lt;b&gt;Get/track my UIN&lt;/b&gt;&lt;/span&gt;" style="rounded=0;whiteSpace=wrap;html=1;fillColor=#97D077;" vertex="1" parent="1">
          <mxGeometry x="1565" y="250" width="120" height="70" as="geometry" />
        </mxCell>
        <mxCell id="l_oWPjq52ZO-z01pJi5X-59" value="" style="endArrow=classic;html=1;entryX=0.5;entryY=0;entryDx=0;entryDy=0;" edge="1" parent="1">
          <mxGeometry width="50" height="50" relative="1" as="geometry">
            <mxPoint x="1624.789999999999" y="190" as="sourcePoint" />
            <mxPoint x="1624.29" y="250" as="targetPoint" />
          </mxGeometry>
        </mxCell>
        <mxCell id="l_oWPjq52ZO-z01pJi5X-60" value="" style="edgeStyle=orthogonalEdgeStyle;rounded=0;orthogonalLoop=1;jettySize=auto;html=1;entryX=0;entryY=0.5;entryDx=0;entryDy=0;" edge="1" parent="1" target="l_oWPjq52ZO-z01pJi5X-26">
          <mxGeometry relative="1" as="geometry">
            <mxPoint x="650" y="365" as="targetPoint" />
            <Array as="points">
              <mxPoint x="510" y="270" />
              <mxPoint x="510" y="375" />
            </Array>
            <mxPoint x="650" y="270" as="sourcePoint" />
          </mxGeometry>
        </mxCell>
        <mxCell id="l_oWPjq52ZO-z01pJi5X-61" value="&lt;b&gt;S&lt;/b&gt;" style="ellipse;whiteSpace=wrap;html=1;aspect=fixed;fillColor=#FF6666;" vertex="1" parent="1">
          <mxGeometry x="540" y="365" width="20" height="20" as="geometry" />
        </mxCell>
        <mxCell id="l_oWPjq52ZO-z01pJi5X-62" value="&lt;b&gt;&lt;font style=&quot;font-size: 18px&quot;&gt;Notification section&lt;/font&gt;&lt;/b&gt;" style="rounded=0;whiteSpace=wrap;html=1;fillColor=#FFFF99;" vertex="1" parent="1">
          <mxGeometry x="1715" y="250" width="120" height="70" as="geometry" />
        </mxCell>
        <mxCell id="l_oWPjq52ZO-z01pJi5X-63" value="" style="endArrow=classic;html=1;entryX=0.5;entryY=0;entryDx=0;entryDy=0;" edge="1" parent="1" target="l_oWPjq52ZO-z01pJi5X-62">
          <mxGeometry width="50" height="50" relative="1" as="geometry">
            <mxPoint x="1775" y="190" as="sourcePoint" />
            <mxPoint x="1634.2900000000004" y="260" as="targetPoint" />
          </mxGeometry>
        </mxCell>
        <mxCell id="l_oWPjq52ZO-z01pJi5X-64" value="&lt;span style=&quot;font-size: 14px&quot;&gt;View/download credential that was requested before&lt;/span&gt;" style="rounded=0;whiteSpace=wrap;html=1;fillColor=#FFFF99;" vertex="1" parent="1">
          <mxGeometry x="1715" y="490" width="120" height="70" as="geometry" />
        </mxCell>
        <mxCell id="l_oWPjq52ZO-z01pJi5X-65" value="&lt;span style=&quot;font-size: 14px&quot;&gt;Outside:Track status of a service request&lt;/span&gt;" style="rounded=0;whiteSpace=wrap;html=1;fillColor=#FFFF99;" vertex="1" parent="1">
          <mxGeometry x="1715" y="410" width="120" height="70" as="geometry" />
        </mxCell>
        <mxCell id="l_oWPjq52ZO-z01pJi5X-66" value="&lt;span style=&quot;font-size: 14px&quot;&gt;Status of pending request&lt;/span&gt;" style="rounded=0;whiteSpace=wrap;html=1;fillColor=#FFFF99;" vertex="1" parent="1">
          <mxGeometry x="1715" y="330" width="120" height="70" as="geometry" />
        </mxCell>
        <mxCell id="l_oWPjq52ZO-z01pJi5X-67" value="" style="endArrow=classic;html=1;" edge="1" parent="1">
          <mxGeometry width="50" height="50" relative="1" as="geometry">
            <mxPoint x="1895" y="280" as="sourcePoint" />
            <mxPoint x="1835" y="365" as="targetPoint" />
            <Array as="points">
              <mxPoint x="1895" y="365" />
            </Array>
          </mxGeometry>
        </mxCell>
        <mxCell id="l_oWPjq52ZO-z01pJi5X-68" value="" style="endArrow=classic;html=1;" edge="1" parent="1">
          <mxGeometry width="50" height="50" relative="1" as="geometry">
            <mxPoint x="1895.0000000000005" y="420" as="sourcePoint" />
            <mxPoint x="1835" y="525" as="targetPoint" />
            <Array as="points">
              <mxPoint x="1895" y="525" />
            </Array>
          </mxGeometry>
        </mxCell>
        <mxCell id="l_oWPjq52ZO-z01pJi5X-69" value="" style="endArrow=none;html=1;exitX=1;exitY=0.5;exitDx=0;exitDy=0;" edge="1" parent="1" source="l_oWPjq52ZO-z01pJi5X-62">
          <mxGeometry width="50" height="50" relative="1" as="geometry">
            <mxPoint x="1300" y="290" as="sourcePoint" />
            <mxPoint x="1895" y="285" as="targetPoint" />
          </mxGeometry>
        </mxCell>
        <mxCell id="l_oWPjq52ZO-z01pJi5X-70" value="" style="endArrow=classic;html=1;" edge="1" parent="1">
          <mxGeometry width="50" height="50" relative="1" as="geometry">
            <mxPoint x="1895.0000000000005" y="350" as="sourcePoint" />
            <mxPoint x="1835" y="455" as="targetPoint" />
            <Array as="points">
              <mxPoint x="1895" y="455" />
            </Array>
          </mxGeometry>
        </mxCell>
        <mxCell id="l_oWPjq52ZO-z01pJi5X-71" value="&lt;span style=&quot;font-size: 14px&quot;&gt;Book appointment to update UIN&lt;/span&gt;&lt;span&gt;&lt;font&gt;&lt;br&gt;&lt;/font&gt;&lt;/span&gt;" style="rounded=0;whiteSpace=wrap;html=1;fillColor=#FFFF99;" vertex="1" parent="1">
          <mxGeometry x="720" y="500" width="120" height="70" as="geometry" />
        </mxCell>
        <mxCell id="l_oWPjq52ZO-z01pJi5X-72" value="&lt;font style=&quot;font-size: 14px&quot;&gt;AID + full name + DOB +OTP&lt;/font&gt;" style="text;html=1;strokeColor=none;fillColor=none;align=center;verticalAlign=middle;whiteSpace=wrap;rounded=0;" vertex="1" parent="1">
          <mxGeometry x="1555" y="150" width="140" height="20" as="geometry" />
        </mxCell>
        <mxCell id="l_oWPjq52ZO-z01pJi5X-73" value="&lt;font style=&quot;font-size: 14px&quot;&gt;UIN/VID + OTP&lt;/font&gt;" style="text;html=1;strokeColor=none;fillColor=none;align=center;verticalAlign=middle;whiteSpace=wrap;rounded=0;" vertex="1" parent="1">
          <mxGeometry x="650" y="165" width="140" height="20" as="geometry" />
        </mxCell>
        <mxCell id="l_oWPjq52ZO-z01pJi5X-74" value="&lt;font style=&quot;font-size: 14px&quot;&gt;UIN +OTP&lt;/font&gt;" style="text;html=1;strokeColor=none;fillColor=none;align=center;verticalAlign=middle;whiteSpace=wrap;rounded=0;" vertex="1" parent="1">
          <mxGeometry x="1390" y="160" width="90" height="20" as="geometry" />
        </mxCell>
        <mxCell id="l_oWPjq52ZO-z01pJi5X-75" value="" style="endArrow=classic;html=1;entryX=0.5;entryY=0;entryDx=0;entryDy=0;" edge="1" parent="1" target="l_oWPjq52ZO-z01pJi5X-48">
          <mxGeometry width="50" height="50" relative="1" as="geometry">
            <mxPoint x="1228" y="190" as="sourcePoint" />
            <mxPoint x="1195" y="450" as="targetPoint" />
          </mxGeometry>
        </mxCell>
        <mxCell id="l_oWPjq52ZO-z01pJi5X-76" value="&lt;!--StartFragment--&gt;&lt;span style=&quot;font-family: Helvetica; font-size: 14px; font-style: normal; font-variant-ligatures: normal; font-variant-caps: normal; font-weight: 400; letter-spacing: normal; orphans: 2; text-align: center; text-indent: 0px; text-transform: none; widows: 2; word-spacing: 0px; -webkit-text-stroke-width: 0px; background-color: rgb(248, 249, 250); text-decoration-style: initial; text-decoration-color: initial; float: none; display: inline !important;&quot;&gt;Email/phone +OTP&lt;/span&gt;&lt;!--EndFragment--&gt;" style="text;whiteSpace=wrap;html=1;" vertex="1" parent="1">
          <mxGeometry x="1160" y="160" width="140" height="30" as="geometry" />
        </mxCell>
        <mxCell id="l_oWPjq52ZO-z01pJi5X-77" value="&lt;font style=&quot;font-size: 14px&quot;&gt;UIN/VID + OTP&lt;/font&gt;" style="text;html=1;strokeColor=none;fillColor=none;align=center;verticalAlign=middle;whiteSpace=wrap;rounded=0;" vertex="1" parent="1">
          <mxGeometry x="360" y="160" width="110" height="20" as="geometry" />
        </mxCell>
      </root>
    </mxGraphModel>
  </diagram>
</mxfile>
